<svg width="295" height="295" viewBox="0 0 295 295" fill="none" xmlns="http://www.w3.org/2000/svg">
<rect width="295" height="295" fill="#FAFAFA"/>
<circle cx="147.5" cy="147.5" r="81" stroke="#8B4BAF" stroke-opacity="0.5"/>
<circle cx="147.5" cy="147.5" r="82" stroke="#7917B0" stroke-opacity="0.5"/>
<circle cx="147.5" cy="147.5" r="83" stroke="#390357" stroke-opacity="0.5"/>
<circle cx="147.5" cy="147.5" r="118.09" stroke="#8B4BAF" stroke-opacity="0.5"/>
<circle cx="147.5" cy="147.5" r="119" stroke="#7917B0" stroke-opacity="0.5"/>
<circle cx="147.5" cy="147.5" r="120" stroke="#390357" stroke-opacity="0.5"/>
<circle cx="147.5" cy="147.5" r="145" stroke="#8B4BAF" stroke-opacity="0.5"/>
<circle cx="147.5" cy="147.5" r="146" stroke="#7917B0" stroke-opacity="0.5"/>
<circle cx="147.5" cy="147.5" r="147" stroke="#390357" stroke-opacity="0.5"/>
<circle cx="279" cy="118" r="4" fill="#542DC4"/>
<circle cx="11" cy="218" r="4" fill="#5F1BEF"/>
<circle cx="248" cy="255" r="4" fill="#550DC9"/>
<circle cx="167" cy="277" r="4" fill="#5C2BE9"/>
<circle cx="207" cy="234" r="4" fill="#8C65CD"/>
<circle cx="159" cy="35" r="4" fill="#6E64DE"/>
<circle cx="256" cy="28" r="4" fill="#C8A0DE"/>
<circle cx="37" cy="289" r="4" fill="#C72FED"/>
<circle cx="37" cy="103" r="4" fill="#BC42E7"/>
<circle cx="29" cy="27" r="4" fill="#723694"/>
</svg>
