<svg width="54" height="54" viewBox="0 0 54 54" fill="none" xmlns="http://www.w3.org/2000/svg">
<path d="M27.375 53.75C12.8324 53.75 1 41.9186 1 27.375C1 12.8314 12.8324 1 27.375 1C41.9176 1 53.75 12.8314 53.75 27.375C53.75 41.9186 41.9186 53.75 27.375 53.75ZM27.375 3.04854C13.9611 3.04854 3.04854 13.9611 3.04854 27.375C3.04854 40.7889 13.9611 51.7015 27.375 51.7015C40.7889 51.7015 51.7015 40.7889 51.7015 27.375C51.7015 13.9611 40.7889 3.04854 27.375 3.04854Z" fill="black" stroke="black" stroke-width="0.5"/>
<path d="M35.2855 28.2159H20.6046C20.0382 28.2159 19.5803 27.7571 19.5803 27.1917C19.5803 26.6263 20.0382 26.1674 20.6046 26.1674H35.2855C35.8519 26.1674 36.3098 26.6263 36.3098 27.1917C36.3098 27.7571 35.8519 28.2159 35.2855 28.2159Z" fill="black" stroke="black" stroke-width="0.5"/>
<path d="M25.5948 34.8563C25.2977 34.8563 25.0028 34.7282 24.801 34.4793L19.3846 27.84C19.0835 27.4713 19.0763 26.9438 19.3672 26.5658L24.213 20.2922C24.5572 19.8456 25.2015 19.7595 25.6491 20.1078C26.0977 20.454 26.1796 21.0972 25.8334 21.5448L21.4844 27.1753L26.3865 33.1847C26.745 33.6231 26.6795 34.2683 26.2401 34.6258C26.0506 34.7805 25.8222 34.8563 25.5948 34.8563Z" fill="black" stroke="black" stroke-width="0.5"/>
</svg>
