<svg width="54" height="54" viewBox="0 0 54 54" fill="none" xmlns="http://www.w3.org/2000/svg">
<path d="M26.625 0.25C41.1676 0.25 53 12.0814 53 26.625C53 41.1686 41.1676 53 26.625 53C12.0824 53 0.25 41.1686 0.25 26.625C0.25 12.0814 12.0814 0.25 26.625 0.25ZM26.625 50.9515C40.0389 50.9515 50.9515 40.0389 50.9515 26.625C50.9515 13.2111 40.0389 2.29854 26.625 2.29854C13.2111 2.29854 2.29854 13.2111 2.29854 26.625C2.29854 40.0389 13.2111 50.9515 26.625 50.9515Z" fill="black" stroke="black" stroke-width="0.5"/>
<path d="M18.7145 25.7841H33.3954C33.9618 25.7841 34.4197 26.2429 34.4197 26.8083C34.4197 27.3737 33.9618 27.8326 33.3954 27.8326L18.7145 27.8326C18.1481 27.8326 17.6902 27.3737 17.6902 26.8083C17.6902 26.2429 18.1481 25.7841 18.7145 25.7841Z" fill="black" stroke="black" stroke-width="0.5"/>
<path d="M28.4052 19.1437C28.7023 19.1437 28.9972 19.2718 29.199 19.5207L34.6154 26.16C34.9165 26.5287 34.9237 27.0562 34.6328 27.4342L29.787 33.7078C29.4428 34.1544 28.7985 34.2405 28.3509 33.8922C27.9023 33.546 27.8204 32.9028 28.1666 32.4552L32.5156 26.8247L27.6135 20.8153C27.255 20.3769 27.3205 19.7317 27.7599 19.3742C27.9494 19.2195 28.1778 19.1437 28.4052 19.1437Z" fill="black" stroke="black" stroke-width="0.5"/>
</svg>
